HIERARCHY
ROOT hip
{
  OFFSET 0 0 0
  CHANNELS 6 Xposition Yposition Zposition Zrotation Yrotation Xrotation
  JOINT abdomen
  {
    OFFSET 0 20.6881 -0.73152
    CHANNELS 3 Zrotation Xrotation Yrotation
    JOINT chest
    {
      OFFSET 0 11.7043 -0.48768
      CHANNELS 3 Zrotation Xrotation Yrotation
      JOINT neck
      {
        OFFSET 0 22.1894 -2.19456
        CHANNELS 3 Zrotation Xrotation Yrotation
        JOINT head
        {
          OFFSET -0.24384 7.07133 1.2192
          CHANNELS 3 Zrotation Xrotation Yrotation
          JOINT leftEye
          {
            OFFSET 4.14528 8.04674 8.04672
            CHANNELS 3 Zrotation Xrotation Yrotation
            End Site
            {
              OFFSET 1 0 0
            }
          }
          JOINT rightEye
          {
            OFFSET -3.6576 8.04674 8.04672
            CHANNELS 3 Zrotation Xrotation Yrotation
            End Site
            {
              OFFSET 1 0 0
            }
          }
        }
      }
      JOINT rCollar
      {
        OFFSET -2.68224 19.2634 -4.8768
        CHANNELS 3 Zrotation Xrotation Yrotation
        JOINT rShldr
        {
          OFFSET -8.77824 -1.95073 1.46304
          CHANNELS 3 Zrotation Xrotation Yrotation
          JOINT rForeArm
          {
            OFFSET -28.1742 -1.7115 0.48768
            CHANNELS 3 Zrotation Xrotation Yrotation
            JOINT rHand
            {
              OFFSET -22.5879 0.773209 7.07136
              CHANNELS 3 Zrotation Xrotation Yrotation
              JOINT rThumb1
              {
                OFFSET -1.2192 -0.487915 3.41376
                CHANNELS 3 Zrotation Xrotation Yrotation
                JOINT rThumb2
                {
                  OFFSET -3.37035 -0.52449 3.41376
                  CHANNELS 3 Zrotation Xrotation Yrotation
                  End Site
                  {
                    OFFSET -1.78271 -1.18214 1.43049
                  }
                }
              }
              JOINT rIndex1
              {
                OFFSET -7.75947 0.938293 5.60832
                CHANNELS 3 Zrotation Xrotation Yrotation
                JOINT rIndex2
                {
                  OFFSET -2.54057 -0.884171 1.56538
                  CHANNELS 3 Zrotation Xrotation Yrotation
                  End Site
                  {
                    OFFSET -1.62519 -0.234802 1.16502
                  }
                }
              }
              JOINT rMid1
              {
                OFFSET -8.24714 1.18213 3.41376
                CHANNELS 3 Zrotation Xrotation Yrotation
                JOINT rMid2
                {
                  OFFSET -3.10165 -0.590103 1.0647
                  CHANNELS 3 Zrotation Xrotation Yrotation
                  End Site
                  {
                    OFFSET -2.48547 -0.328903 0.83742
                  }
                }
              }
              JOINT rRing1
              {
                OFFSET -8.82822 0.546677 1.51678
                CHANNELS 3 Zrotation Xrotation Yrotation
                JOINT rRing2
                {
                  OFFSET -2.60934 -0.819778 -0.0198488
                  CHANNELS 3 Zrotation Xrotation Yrotation
                  End Site
                  {
                    OFFSET -2.33842 -0.294052 0.168128
                  }
                }
              }
              JOINT rPinky1
              {
                OFFSET -8.27202 -0.0477905 -0.4584
                CHANNELS 3 Zrotation Xrotation Yrotation
                JOINT rPinky2
                {
                  OFFSET -1.82734 -0.647385 -0.700984
                  CHANNELS 3 Zrotation Xrotation Yrotation
                  End Site
                  {
                    OFFSET -1.69225 -0.51767 -0.607171
                  }
                }
              }
            }
          }
        }
      }
      JOINT lCollar
      {
        OFFSET 2.68224 19.2634 -4.8768
        CHANNELS 3 Zrotation Xrotation Yrotation
        JOINT lShldr
        {
          OFFSET 8.77824 -1.95073 1.46304
          CHANNELS 3 Zrotation Xrotation Yrotation
          JOINT lForeArm
          {
            OFFSET 28.1742 -1.7115 0.48768
            CHANNELS 3 Zrotation Xrotation Yrotation
            JOINT lHand
            {
              OFFSET 22.5879 0.773209 7.07136
              CHANNELS 3 Zrotation Xrotation Yrotation
              JOINT lThumb1
              {
                OFFSET 1.2192 -0.487915 3.41376
                CHANNELS 3 Zrotation Xrotation Yrotation
                JOINT lThumb2
                {
                  OFFSET 3.37035 -0.52449 3.41376
                  CHANNELS 3 Zrotation Xrotation Yrotation
                  End Site
                  {
                    OFFSET 1.78271 -1.18214 1.43049
                  }
                }
              }
              JOINT lIndex1
              {
                OFFSET 7.75947 0.938293 5.60832
                CHANNELS 3 Zrotation Xrotation Yrotation
                JOINT lIndex2
                {
                  OFFSET 2.54057 -0.884171 1.56538
                  CHANNELS 3 Zrotation Xrotation Yrotation
                  End Site
                  {
                    OFFSET 1.62519 -0.234802 1.16502
                  }
                }
              }
              JOINT lMid1
              {
                OFFSET 8.24714 1.18213 3.41376
                CHANNELS 3 Zrotation Xrotation Yrotation
                JOINT lMid2
                {
                  OFFSET 3.10165 -0.590103 1.0647
                  CHANNELS 3 Zrotation Xrotation Yrotation
                  End Site
                  {
                    OFFSET 2.48547 -0.328903 0.83742
                  }
                }
              }
              JOINT lRing1
              {
                OFFSET 8.82822 0.546677 1.51678
                CHANNELS 3 Zrotation Xrotation Yrotation
                JOINT lRing2
                {
                  OFFSET 2.60934 -0.819778 -0.0198488
                  CHANNELS 3 Zrotation Xrotation Yrotation
                  End Site
                  {
                    OFFSET 2.33842 -0.294052 0.168128
                  }
                }
              }
              JOINT lPinky1
              {
                OFFSET 8.27202 -0.0477905 -0.4584
                CHANNELS 3 Zrotation Xrotation Yrotation
                JOINT lPinky2
                {
                  OFFSET 1.82734 -0.647385 -0.700984
                  CHANNELS 3 Zrotation Xrotation Yrotation
                  End Site
                  {
                    OFFSET 1.69225 -0.51767 -0.607171
                  }
                }
              }
            }
          }
        }
      }
    }
  }
  JOINT rButtock
  {
    OFFSET -8.77824 4.35084 1.2192
    CHANNELS 3 Zrotation Xrotation Yrotation
    JOINT rThigh
    {
      OFFSET 0 -1.70687 -2.19456
      CHANNELS 3 Zrotation Xrotation Yrotation
      JOINT rShin
      {
        OFFSET 0 -36.8199 0.73152
        CHANNELS 3 Zrotation Xrotation Yrotation
        JOINT rFoot
        {
          OFFSET 0.73152 -45.1104 -5.12064
          CHANNELS 3 Zrotation Xrotation Yrotation
          End Site
          {
            OFFSET -1.1221 -3.69964 12.103
          }
        }
      }
    }
  }
  JOINT lButtock
  {
    OFFSET 8.77824 4.35084 1.2192
    CHANNELS 3 Zrotation Xrotation Yrotation
    JOINT lThigh
    {
      OFFSET 0 -1.70687 -2.19456
      CHANNELS 3 Zrotation Xrotation Yrotation
      JOINT lShin
      {
        OFFSET 0 -36.8199 0.73152
        CHANNELS 3 Zrotation Xrotation Yrotation
        JOINT lFoot
        {
          OFFSET -0.73152 -45.1104 -5.12064
          CHANNELS 3 Zrotation Xrotation Yrotation
          End Site
          {
            OFFSET 1.1221 -3.69964 12.103
          }
        }
      }
    }
  }
}
MOTION
Frames:	4
Frame Time:	0.00833333
71.492 85.2982 13.1386 0.0 0.0 0.0 0.984362 -0.0043609 0.0272516 0.271547 -0.00455336 0.0470449 -2.81122e-14 7.95139e-16 7.45443e-17 -8.40828e-14 9.54166e-15 2.43822e-16 -0.0 0.0 0.0 -0.0 0.0 0.0 -1.40161e-14 -6.60027e-18 1.98785e-16 -2.92323e-13 -3.78933e-16 7.95139e-16 -5.05758e-12 1.504e-12 1.90833e-14 -5.78408e-11 -1.53939e-12 7.63333e-14 -1.36443e-10 -7.57406e-14 2.51264e-13 -2.35639e-10 -1.36764e-13 4.32555e-13 -1.36441e-10 -7.67309e-14 2.41722e-13 7.73091 5.47488 0.417314 -1.36442e-10 -7.62339e-14 2.51264e-13 2.90554 0.965183 0.102902 -1.36439e-10 -7.55382e-14 2.48878e-13 10.2786 0.731801 0.0259123 -1.36449e-10 -7.196e-14 2.54444e-13 2.22167 -0.733487 -0.20892 -1.42122e-14 -6.98852e-18 -9.93923e-17 -2.95852e-13 -6.21202e-17 -9.93923e-16 -5.05251e-12 -1.51911e-12 9.54166e-14 -5.78504e-11 1.48693e-12 3.18055e-14 -1.36445e-10 -7.45262e-14 2.54444e-13 -2.35619e-10 -1.30403e-13 4.47663e-13 -1.36449e-10 -7.39479e-14 2.70347e-13 -7.73091 5.47488 -0.417314 -1.36444e-10 -7.48424e-14 2.51264e-13 -2.90554 0.965183 -0.102902 -1.36445e-10 -7.4743e-14 2.56035e-13 -10.2786 0.731801 -0.0259123 -1.36442e-10 -7.03698e-14 2.48083e-13 -2.22167 -0.733487 0.20892 -2.03217e-16 0.0 -3.88251e-19 1.24873 -5.45299 -0.109159 6.98967e-05 4.32236 0.0238862 -0.510572 1.1295 0.0812218 2.03217e-16 0.0 3.88251e-19 0.249573 -1.91924 0.0129248 0.00928436 -2.07855 0.0766906 0.496356 3.99654 -0.13796
66.1323 82.7958 4.29146 -160.947 -81.3711 171.013 0.765191 6.71408 -0.514263 0.855625 -0.850199 -0.180402 -3.54759 -1.24821 -2.31337 3.12735 -1.17292 -3.18293 -0.0 0.0 0.0 -0.0 0.0 0.0 3.21223e-14 -1.94527e-14 -6.70176e-14 20.7613 7.49797 4.54557 -7.02814 -4.0601 9.87402 0.0290265 -3.78194 -0.527346 1.46298e-11 3.51311e-10 -1.14356e-10 2.78703e-11 6.09095e-10 -1.96793e-10 1.46315e-11 3.51311e-10 -1.14365e-10 7.73091 5.47488 0.417314 1.46287e-11 3.5131e-10 -1.14352e-10 2.90554 0.965183 0.102902 1.46341e-11 3.51312e-10 -1.14358e-10 10.2786 0.731801 0.0259123 1.46253e-11 3.51314e-10 -1.14352e-10 2.22167 -0.733487 -0.20892 3.19412e-14 -1.9451e-14 -6.72591e-14 -18.1117 8.79149 -5.91478 7.39487 -4.38024 -10.2296 -0.0837117 -6.43154 0.883522 1.68142e-11 7.03702e-12 -6.72135e-11 2.95006e-11 1.25915e-11 -1.14181e-10 1.68091e-11 7.0366e-12 -6.72001e-11 -7.73091 5.47488 -0.417314 1.68132e-11 7.03484e-12 -6.72147e-11 -2.90554 0.965183 -0.102902 1.68102e-11 7.03431e-12 -6.72117e-11 -10.2786 0.731801 -0.0259123 1.68186e-11 7.03723e-12 -6.72186e-11 -2.22167 -0.733487 0.20892 -2.03217e-16 0.0 -3.88251e-19 -2.18964 -13.8181 -4.272 0.0311773 11.8717 0.185318 -0.498622 -1.54807 -1.4851 2.03217e-16 0.0 3.88251e-19 4.68213 -12.201 3.41617 -0.00483857 9.11458 -0.0848373 0.600955 1.3919 2.15572
67.2276 82.7264 3.72676 -161.469 -83.5987 173.351 0.659005 13.7717 -1.11718 1.48137 -1.69684 -0.424138 -7.4088 -2.55606 -4.75858 6.30265 -2.43892 -6.54042 -0.0 0.0 0.0 -0.0 0.0 0.0 8.28184e-14 -3.929e-14 -1.41392e-13 41.3827 15.2316 9.64584 -12.9659 -7.95955 20.48 -0.0165878 -7.7676 -1.09094 1.77812e-10 7.19139e-10 -2.37047e-10 3.12448e-10 1.24686e-09 -4.07887e-10 1.77814e-10 7.19141e-10 -2.37055e-10 7.73091 5.47488 0.417314 1.77809e-10 7.19138e-10 -2.37037e-10 2.90554 0.965183 0.102902 1.77817e-10 7.1914e-10 -2.37048e-10 10.2786 0.731801 0.0259123 1.77809e-10 7.19141e-10 -2.37043e-10 2.22167 -0.733487 -0.20892 8.26505e-14 -3.92863e-14 -1.41572e-13 -35.1663 17.699 -12.6813 13.5486 -8.55927 -21.2483 0.0491467 -13.2582 1.85993 1.87117e-10 6.58275e-12 -1.53388e-10 3.2437e-10 1.22147e-11 -2.60955e-10 1.87111e-10 6.58122e-12 -1.53377e-10 -7.73091 5.47488 -0.417314 1.87115e-10 6.57853e-12 -1.53387e-10 -2.90554 0.965183 -0.102902 1.87109e-10 6.57732e-12 -1.53386e-10 -10.2786 0.731801 -0.0259123 1.87123e-10 6.57866e-12 -1.53392e-10 -2.22167 -0.733487 0.20892 -2.03217e-16 0.0 -3.88251e-19 -7.24837 -22.5219 -9.12549 0.0152973 19.829 0.369853 -0.637853 -4.4124 -3.08695 2.03217e-16 0.0 3.88251e-19 10.7897 -23.0204 7.44833 0.0527355 20.9709 -0.271394 0.937023 -1.3415 4.57698
67.6905 82.5274 3.16122 -164.522 -84.5613 177.205 0.728657 20.1437 -1.69012 2.00362 -2.54135 -0.635863 -10.9449 -3.72021 -6.95318 8.99249 -3.47534 -9.56454 -0.0 0.0 0.0 -0.0 0.0 0.0 1.24399e-13 -5.83449e-14 -2.0145e-13 58.5187 21.9059 14.5945 -17.0336 -10.7345 30.1271 -0.125285 -11.3419 -1.61004 3.16775e-10 1.05408e-09 -3.43572e-10 5.54889e-10 1.82756e-09 -5.91243e-10 3.16777e-10 1.05409e-09 -3.43578e-10 7.73091 5.47488 0.417314 3.16771e-10 1.05408e-09 -3.43557e-10 2.90554 0.965183 0.102902 3.1678e-10 1.05409e-09 -3.43572e-10 10.2786 0.731801 0.0259123 3.16773e-10 1.05409e-09 -3.43566e-10 2.22167 -0.733487 -0.20892 1.24248e-13 -5.8339e-14 -2.01579e-13 -48.5087 25.1927 -19.4486 17.6647 -11.4656 -31.2906 0.373744 -19.2757 2.79042 3.23332e-10 2.12601e-11 -2.02149e-10 5.59739e-10 3.80354e-11 -3.43438e-10 3.23324e-10 2.12577e-11 -2.02141e-10 -7.73091 5.47488 -0.417314 3.23328e-10 2.12542e-11 -2.02147e-10 -2.90554 0.965183 -0.102902 3.2332e-10 2.12524e-11 -2.02147e-10 -10.2786 0.731801 -0.0259123 3.23339e-10 2.12524e-11 -2.02152e-10 -2.22167 -0.733487 0.20892 -2.03217e-16 0.0 -3.88251e-19 -13.1766 -29.892 -14.1396 -0.0484524 26.9694 0.557004 -0.915909 -6.88228 -4.64965 2.03217e-16 0.0 3.88251e-19 17.7661 -32.269 11.8402 0.180093 31.5 -0.474503 1.43492 -3.78805 6.75534
